<svg viewBox="0 0 200 150" xmlns="http://www.w3.org/2000/svg">
  <defs>
    <radialGradient id="bulbGlow" cx="0.5" cy="0.45" r="0.55">
      <stop offset="0%" stop-color="#fff8d6"/>
      <stop offset="60%" stop-color="#ffe580"/>
      <stop offset="100%" stop-color="#f59f00"/>
    </radialGradient>
  </defs>
  <ellipse cx="100" cy="135" rx="40" ry="3" fill="#000" opacity="0.1"/>
  <!-- glow -->
  <circle cx="100" cy="62" r="48" fill="#ffe580" opacity="0.18"/>
  <!-- bulb -->
  <path d="M76 78 Q70 50 100 30 Q130 50 124 78 Z" fill="url(#bulbGlow)"/>
  <!-- filament -->
  <path d="M88 58 Q100 70 112 58 M88 66 Q100 76 112 66" stroke="#f59f00" stroke-width="1.2" fill="none" opacity="0.7"/>
  <!-- base -->
  <rect x="84" y="78" width="32" height="10" rx="2" fill="#86868b"/>
  <rect x="86" y="88" width="28" height="6" fill="#6e6e73"/>
  <rect x="88" y="94" width="24" height="6" fill="#86868b"/>
  <path d="M90 100 Q100 108 110 100" fill="#6e6e73"/>
  <!-- twinkles -->
  <g fill="#fff" opacity="0.85">
    <circle cx="142" cy="40" r="1.5"/>
    <circle cx="58" cy="50" r="1.5"/>
    <circle cx="60" cy="90" r="1.2"/>
  </g>
</svg>
