<svg viewBox="0 0 200 150" xmlns="http://www.w3.org/2000/svg">
  <defs>
    <linearGradient id="bndShield" x1="0" y1="0" x2="0" y2="1">
      <stop offset="0%" stop-color="#ff3b30"/>
      <stop offset="100%" stop-color="#c01a0d"/>
    </linearGradient>
  </defs>
  <ellipse cx="100" cy="135" rx="60" ry="4" fill="#000" opacity="0.12"/>
  <!-- back shield -->
  <path d="M100 18 L150 32 L150 70 Q150 102 100 124 Q50 102 50 70 L50 32 Z" fill="url(#bndShield)" opacity="0.92"/>
  <!-- camera -->
  <rect x="62" y="48" width="40" height="26" rx="6" fill="#1d1d1f"/>
  <circle cx="82" cy="61" r="8" fill="#0a0a0c"/>
  <circle cx="82" cy="61" r="5" fill="#0071e3" opacity="0.6"/>
  <!-- lock -->
  <circle cx="128" cy="62" r="16" fill="#fff"/>
  <circle cx="128" cy="62" r="11" fill="#f5f5f7"/>
  <rect x="125" y="56" width="6" height="10" rx="1.5" fill="#1d1d1f"/>
  <circle cx="128" cy="68" r="2" fill="#1d1d1f"/>
  <!-- hub -->
  <rect x="84" y="84" width="32" height="22" rx="5" fill="#fff"/>
  <circle cx="100" cy="95" r="6" fill="#34c759"/>
  <path d="M97 95 L99 97 L103 93" stroke="#fff" stroke-width="1.5" fill="none" stroke-linecap="round"/>
</svg>
